<svg xmlns="http://www.w3.org/2000/svg" width="56" height="56" viewBox="0 0 56 56">
  <path id="gavel" d="M55.231,21.8,52.756,19.33a2.625,2.625,0,0,0-3.712,0l-.619.619L36.051,7.574l.619-.619a2.625,2.625,0,0,0,0-3.712L34.195.768a2.625,2.625,0,0,0-3.712,0L16.871,14.38a2.625,2.625,0,0,0,0,3.712l2.475,2.475a2.625,2.625,0,0,0,3.712,0l.619-.619,4.331,4.331-8.864,8.864-.619-.619a3.5,3.5,0,0,0-4.95,0L1.025,45.075a3.5,3.5,0,0,0,0,4.95l4.95,4.95a3.5,3.5,0,0,0,4.95,0l12.55-12.55a3.5,3.5,0,0,0,0-4.95l-.619-.619,8.864-8.864,4.331,4.331-.619.619a2.625,2.625,0,0,0,0,3.712l2.475,2.475a2.625,2.625,0,0,0,3.712,0L55.231,25.517a2.625,2.625,0,0,0,0-3.712Z" transform="translate(0 0.001)" fill="#fff"/>
</svg>
