<svg xmlns="http://www.w3.org/2000/svg" width="84.064" height="80" viewBox="0 0 84.064 80">
  <path id="Union_6" data-name="Union 6" d="M-4608.758-88.2l-30.363-16.672a1.643,1.643,0,0,1-.852-1.44v-16.841l-9.175-5.038a1.639,1.639,0,0,1-.835-1.207,1.64,1.64,0,0,1,.464-1.393l8.865-8.865-8.865-8.866a1.639,1.639,0,0,1-.464-1.392,1.641,1.641,0,0,1,.835-1.208l30.363-16.673a1.642,1.642,0,0,1,1.951.278l8.866,8.866,8.866-8.866a1.641,1.641,0,0,1,1.951-.278l8.771,4.817a1.641,1.641,0,0,1,.649,2.229,1.642,1.642,0,0,1-2.229.649l-7.69-4.223-7.608,7.608,27.365,15.026,7.608-7.608-8.74-4.8a1.642,1.642,0,0,1-.649-2.229,1.643,1.643,0,0,1,2.229-.649l10.658,5.852a1.642,1.642,0,0,1,.835,1.208,1.639,1.639,0,0,1-.464,1.393l-8.865,8.866,8.865,8.866a1.639,1.639,0,0,1,.464,1.392,1.642,1.642,0,0,1-.835,1.208l-9.175,5.038v16.841a1.643,1.643,0,0,1-.852,1.44L-4607.177-88.2a1.642,1.642,0,0,1-.791.2A1.641,1.641,0,0,1-4608.758-88.2Zm2.432-21v16.784l27.08-14.869v-14.066l-17.9,9.831a1.641,1.641,0,0,1-.79.2,1.637,1.637,0,0,1-1.161-.481l-8.867-8.866-8.866,8.866a1.641,1.641,0,0,1-1.161.481,1.641,1.641,0,0,1-.79-.2l-17.9-9.831v14.066l27.08,14.869V-109.2a1.642,1.642,0,0,1,1.642-1.642A1.642,1.642,0,0,1-4606.326-109.2Zm1.067-13.4,7.608,7.609,27.365-15.027-7.609-7.608Zm-40.391-7.417,27.366,15.027,7.608-7.609-27.365-15.026Zm10.73-9.641,26.952,14.8,26.952-14.8-26.952-14.8Zm-10.73-9.639,7.608,7.608,27.365-15.026-7.607-7.608Zm36.521,35.81a1.66,1.66,0,0,1-.481-1.162,1.656,1.656,0,0,1,.481-1.161,1.652,1.652,0,0,1,1.161-.481,1.652,1.652,0,0,1,1.161.481,1.656,1.656,0,0,1,.481,1.161,1.66,1.66,0,0,1-.481,1.162,1.654,1.654,0,0,1-1.161.48A1.654,1.654,0,0,1-4609.128-113.489Zm24.431-43.8a1.645,1.645,0,0,1-.481-1.16,1.647,1.647,0,0,1,.481-1.161,1.65,1.65,0,0,1,1.161-.481,1.654,1.654,0,0,1,1.161.481,1.656,1.656,0,0,1,.48,1.161,1.655,1.655,0,0,1-.48,1.16,1.657,1.657,0,0,1-1.161.482A1.654,1.654,0,0,1-4584.7-157.288Z" transform="translate(4650 168)" fill="#fff"/>
</svg>
