<svg xmlns="http://www.w3.org/2000/svg" width="49" height="56" viewBox="0 0 49 56">
  <path id="calendar-day" d="M0,50.75A5.251,5.251,0,0,0,5.25,56h38.5A5.251,5.251,0,0,0,49,50.75V21H0Zm7-21A1.755,1.755,0,0,1,8.75,28h10.5A1.755,1.755,0,0,1,21,29.75v10.5A1.755,1.755,0,0,1,19.25,42H8.75A1.755,1.755,0,0,1,7,40.25ZM43.75,7H38.5V1.75A1.755,1.755,0,0,0,36.75,0h-3.5A1.755,1.755,0,0,0,31.5,1.75V7h-14V1.75A1.755,1.755,0,0,0,15.75,0h-3.5A1.755,1.755,0,0,0,10.5,1.75V7H5.25A5.251,5.251,0,0,0,0,12.25V17.5H49V12.25A5.251,5.251,0,0,0,43.75,7Z" fill="#fff"/>
</svg>
