<svg xmlns="http://www.w3.org/2000/svg" width="70" height="85" viewBox="0 0 70 85">
  <g id="check_shield" data-name="check shield" transform="translate(52 -75)">
    <path id="Union_2" data-name="Union 2" d="M34.521,84.93A48.246,48.246,0,0,1,0,38.713V11.621a1.664,1.664,0,0,1,1.667-1.66A8.326,8.326,0,0,0,10,1.66,1.664,1.664,0,0,1,11.667,0H58.333A1.663,1.663,0,0,1,60,1.66a8.327,8.327,0,0,0,8.333,8.3A1.664,1.664,0,0,1,70,11.621V38.713A48.252,48.252,0,0,1,35.479,84.93a1.676,1.676,0,0,1-.957,0ZM3.333,13.163v25.55A44.909,44.909,0,0,0,35,81.6,44.667,44.667,0,0,0,66.667,38.713V13.163A11.671,11.671,0,0,1,56.785,3.32H13.215A11.671,11.671,0,0,1,3.333,13.163ZM34.444,77.92A41.338,41.338,0,0,1,6.667,38.713V16.875a1.661,1.661,0,0,1,1-1.521,14.984,14.984,0,0,0,7.75-7.72,1.667,1.667,0,0,1,1.527-.994h11.4a1.66,1.66,0,1,1,0,3.32H18a18.288,18.288,0,0,1-8,7.964V38.713A37.825,37.825,0,0,0,35,74.59,37.824,37.824,0,0,0,60,38.713V17.925a18.287,18.287,0,0,1-8-7.964H41.663a1.66,1.66,0,1,1,0-3.32h11.4a1.667,1.667,0,0,1,1.527.994,14.984,14.984,0,0,0,7.75,7.72,1.66,1.66,0,0,1,1,1.521V38.713A41.338,41.338,0,0,1,35.556,77.92a1.671,1.671,0,0,1-1.112,0ZM20,39.18A15,15,0,1,1,35,54.121,14.988,14.988,0,0,1,20,39.18Zm3.333,0A11.667,11.667,0,1,0,35,27.559,11.657,11.657,0,0,0,23.333,39.18Zm8.821,6.155-3.333-3.32a1.664,1.664,0,0,1,2.357-2.348l2.155,2.146,7.155-7.127a1.664,1.664,0,1,1,2.357,2.348l-8.333,8.3a1.672,1.672,0,0,1-2.357,0ZM34.833,9.951a1.665,1.665,0,1,1,.17.008Q34.919,9.959,34.833,9.951Z" transform="translate(-52 75)" fill="#fff"/>
  </g>
</svg>
