<svg xmlns="http://www.w3.org/2000/svg" width="56" height="48.243" viewBox="0 0 56 48.243">
  <path id="Union_3" data-name="Union 3" d="M-4486.091-85.132v-4.354h11.454l1.419-19.166-2.139-4.278,2.139-4.278.553-1.931a4.365,4.365,0,0,0,1.665.329,4.369,4.369,0,0,0,1.666-.329l.553,1.931,2.139,4.278-2.139,4.278,1.418,19.166h11.455v4.354Zm28.287-19.025h1.3l4.131-18.4-15.855,2.759a4.385,4.385,0,0,0,1.62-3.4,4.391,4.391,0,0,0-1.121-2.925,4.5,4.5,0,0,0,.407-.519h14.874a2.366,2.366,0,0,0,.81.815l.313-1.392h1.849l.307,1.363a2.371,2.371,0,0,0,.763-.786h4.726v2.576l-4.9.852,4.279,19.06h1.3a7.4,7.4,0,0,1-7.4,7.4A7.4,7.4,0,0,1-4457.8-104.157Zm3.241,0h8.322l-4.161-18.533Zm-44.437,0h1.3l4.28-19.06-4.9-.852v-2.576h4.726a2.374,2.374,0,0,0,.764.786l.306-1.363h1.849l.313,1.392a2.362,2.362,0,0,0,.81-.815h14.874a4.426,4.426,0,0,0,.408.519,4.394,4.394,0,0,0-1.121,2.925,4.385,4.385,0,0,0,1.62,3.4l-15.854-2.759,4.131,18.4h1.3a7.4,7.4,0,0,1-7.4,7.4A7.4,7.4,0,0,1-4499-104.157Zm3.241,0h8.322l-4.161-18.533Zm21.953-19.044a2.812,2.812,0,0,1,1.184-2.286l.916-.652-.922-.643a2.857,2.857,0,0,1-1.223-2.339c0-1.005,1.527-2.927,2.852-4.254,1.325,1.327,2.852,3.249,2.852,4.254a2.857,2.857,0,0,1-1.223,2.339l-.922.643.916.652a2.812,2.812,0,0,1,1.184,2.286,2.809,2.809,0,0,1-2.807,2.806A2.809,2.809,0,0,1-4473.807-123.2Z" transform="translate(4499 133.375)" fill="#fff"/>
</svg>
